<?xml version="1.0" standalone="no"?><svg xmlns="http://www.w3.org/2000/svg" viewBox="0 0 1440 320"><path fill="#662571" fill-opacity="1" d="M0,96L30,96C60,96,120,96,180,122.7C240,149,300,203,360,224C420,245,480,235,540,208C600,181,660,139,720,154.7C780,171,840,245,900,277.3C960,309,1020,299,1080,261.3C1140,224,1200,160,1260,122.7C1320,85,1380,75,1410,69.3L1440,64L1440,0L1410,0C1380,0,1320,0,1260,0C1200,0,1140,0,1080,0C1020,0,960,0,900,0C840,0,780,0,720,0C660,0,600,0,540,0C480,0,420,0,360,0C300,0,240,0,180,0C120,0,60,0,30,0L0,0Z"></path></svg>